<!-- right download -->
    <svg class="svg-icon" width="17" height="18" viewBox="0 0 17 18">
        <path d="M8.5 17.4736C13.1318 17.4736 16.9668 13.6304 16.9668 9.00684C16.9668 4.375 13.1235 0.540039 8.4917 0.540039C3.86816 0.540039 0.0332031 4.375 0.0332031 9.00684C0.0332031 13.6304 3.87646 17.4736 8.5 17.4736ZM8.5 16.0625C4.58203 16.0625 1.45264 12.9248 1.45264 9.00684C1.45264 5.08887 4.57373 1.95117 8.4917 1.95117C12.4097 1.95117 15.5474 5.08887 15.5557 9.00684C15.564 12.9248 12.418 16.0625 8.5 16.0625ZM8.5 4.78174C8.14307 4.78174 7.87744 5.03906 7.87744 5.4043V9.55469L7.94385 11.3062L7.11377 10.3101L6.12598 9.31396C6.00977 9.20605 5.86035 9.13135 5.68604 9.13135C5.3457 9.13135 5.08838 9.39697 5.08838 9.729C5.08838 9.90332 5.13818 10.0527 5.24609 10.1606L8.01855 12.9248C8.18457 13.0908 8.32568 13.1572 8.5 13.1572C8.68262 13.1572 8.83203 13.0825 8.98975 12.9248L11.7539 10.1606C11.8618 10.0527 11.9282 9.90332 11.9282 9.729C11.9282 9.39697 11.6626 9.13135 11.3223 9.13135C11.1396 9.13135 10.9902 9.19775 10.8823 9.31396L9.90283 10.3101L9.05615 11.3145L9.12256 9.55469V5.4043C9.12256 5.03906 8.86523 4.78174 8.5 4.78174Z" />
    </svg>